<?xml version="1.0" standalone="no"?>
<!DOCTYPE svg PUBLIC "-//W3C//DTD SVG 20010904//EN"
 "http://www.w3.org/TR/2001/REC-SVG-20010904/DTD/svg10.dtd">
<svg version="1.0" xmlns="http://www.w3.org/2000/svg"
 width="911.000000pt" height="911.000000pt" viewBox="0 0 911.000000 911.000000"
 preserveAspectRatio="xMidYMid meet">
<metadata>
Created by potrace 1.11, written by Peter Selinger 2001-2013
</metadata>
<g transform="translate(0.000000,911.000000) scale(0.100000,-0.100000)"
fill="#000000" stroke="none">
<path d="M3940 9103 c-14 -2 -86 -18 -160 -34 -74 -16 -146 -30 -160 -32 -20
-3 -26 -10 -28 -35 -3 -27 -13 -36 -34 -31 -10 1 -221 -77 -260 -97 -43 -22
-47 -27 -38 -44 13 -25 6 -38 -28 -51 -32 -12 -141 -36 -197 -42 -22 -3 -61
-10 -87 -16 -26 -6 -55 -8 -64 -4 -12 4 -15 3 -10 -5 4 -7 1 -12 -8 -12 -8 0
-20 -2 -28 -3 -7 -2 -10 -2 -5 0 19 11 3 20 -30 16 -59 -6 -157 -59 -272 -146
-107 -82 -173 -120 -226 -133 -16 -3 -40 -15 -51 -26 -23 -21 -102 -48 -143
-49 -20 0 -22 -2 -9 -7 15 -6 10 -14 -31 -49 -46 -40 -49 -41 -71 -26 l-22 16
28 23 c16 13 35 23 42 24 7 0 11 4 8 9 -3 5 -25 7 -48 6 -24 -2 -53 -4 -65 -4
-31 -1 -29 -24 3 -41 l25 -14 -23 -18 -23 -18 29 -24 28 -24 -18 -31 c-12 -21
-24 -29 -38 -27 -24 4 -49 -10 -97 -53 -21 -20 -44 -31 -64 -31 -25 -1 -37
-10 -68 -55 -22 -29 -47 -62 -56 -72 -32 -34 -70 -108 -73 -140 -1 -17 -5 -30
-9 -27 -11 7 -86 -53 -105 -85 -17 -28 -19 -29 -45 -15 -16 8 -32 14 -38 14
-5 0 -12 -28 -16 -62 -11 -96 -17 -106 -70 -114 -53 -7 -57 -5 -59 35 -1 26
-16 35 -16 10 0 -6 -20 -49 -43 -97 -24 -48 -49 -105 -56 -127 -7 -22 -14 -46
-17 -54 -3 -11 -7 -11 -20 -1 -19 17 -24 10 -58 -73 -24 -56 -34 -70 -65 -84
-80 -37 -208 -202 -367 -473 -70 -120 -166 -277 -210 -344 -14 -21 -21 -35
-16 -32 11 7 42 -2 42 -13 0 -3 -18 -26 -40 -51 -41 -46 -56 -79 -47 -104 6
-15 -12 -26 -44 -26 -11 0 -19 7 -20 18 0 9 -6 -6 -14 -33 -7 -28 -30 -86 -50
-130 -32 -67 -38 -91 -38 -147 0 -67 -9 -88 -22 -48 -10 32 -24 23 -27 -17 -3
-39 -28 -60 -28 -24 0 12 -4 21 -10 21 -16 0 -12 -108 5 -141 17 -31 89 -89
112 -89 18 0 16 -14 -7 -52 -24 -39 -26 -92 -4 -133 14 -28 14 -30 -8 -46 -24
-19 -38 -16 -38 7 0 8 -4 14 -9 14 -8 0 -30 -82 -47 -177 -12 -60 -11 -120 2
-158 12 -38 12 -66 1 -363 -2 -51 -1 -60 9 -47 11 14 14 13 32 -10 14 -18 19
-36 16 -58 -2 -18 -6 -54 -9 -82 -3 -27 -10 -66 -15 -85 -13 -49 -14 -118 -3
-165 6 -22 9 -47 8 -55 -15 -111 -15 -120 -3 -120 7 0 19 4 27 9 9 6 23 5 38
-2 28 -13 30 -51 7 -147 -17 -72 -20 -130 -9 -178 8 -37 20 -41 30 -9 7 21 8
21 12 -6 3 -21 -13 -65 -56 -155 -34 -70 -61 -136 -61 -147 0 -17 -3 -15 -20
10 l-20 30 0 -26 c0 -15 3 -41 6 -59 7 -31 8 -32 51 -26 35 4 47 1 63 -16 29
-31 25 -46 -16 -54 -71 -13 -64 -84 22 -204 32 -45 71 -101 86 -123 36 -54 71
-146 63 -166 -3 -9 5 -3 18 14 24 28 25 28 49 13 14 -9 28 -29 31 -45 56 -262
70 -301 124 -338 22 -15 30 -25 23 -30 -7 -4 -17 -2 -23 4 -14 14 -27 14 -27
1 0 -5 10 -12 23 -15 13 -4 67 -53 120 -110 53 -57 110 -109 127 -117 24 -10
28 -17 23 -33 -22 -65 16 -136 124 -232 162 -144 184 -173 163 -213 -13 -24 9
-53 107 -147 30 -28 56 -59 57 -69 7 -47 131 -135 212 -149 52 -10 60 -16 40
-30 -15 -11 -9 -21 54 -88 39 -41 90 -87 113 -100 40 -24 133 -57 201 -72 25
-5 28 -9 23 -35 -5 -22 -1 -32 16 -43 23 -16 30 -22 141 -125 85 -79 199 -155
278 -183 32 -12 55 -25 49 -28 -6 -4 12 -15 40 -24 57 -21 131 -63 274 -156
183 -119 279 -145 371 -101 38 19 63 23 133 23 72 0 82 1 60 11 -32 13 -59 35
-59 47 0 5 18 18 40 29 22 11 40 27 40 35 0 20 6 19 49 -7 71 -42 93 -82 44
-77 -16 2 -29 0 -30 -4 -13 -36 23 -60 147 -98 41 -12 85 -33 97 -46 13 -12
38 -25 56 -29 121 -21 203 -35 235 -39 20 -3 51 -9 67 -12 17 -4 37 -7 45 -8
25 -3 124 -17 140 -20 8 -2 44 -6 80 -10 36 -4 72 -8 80 -10 103 -19 633 -26
650 -9 7 7 1 22 -15 44 -14 18 -24 34 -22 36 1 1 36 4 78 8 62 5 79 3 89 -9
17 -20 0 -40 -43 -51 l-32 -8 32 -3 c39 -5 101 25 135 66 22 25 30 28 58 22
49 -10 47 -25 -6 -62 -27 -18 -43 -34 -37 -36 18 -6 78 12 78 24 0 18 56 63
104 85 55 25 119 28 135 6 18 -24 32 -24 136 1 52 13 100 24 107 25 27 4 21
14 -17 31 -22 10 -40 21 -40 25 0 4 23 17 50 30 32 15 49 29 46 37 -4 9 6 13
37 13 113 1 253 45 490 155 90 41 168 75 173 75 5 0 36 25 69 56 33 31 105 83
159 117 89 55 97 62 78 70 -27 12 -29 48 -4 70 25 23 37 21 54 -5 23 -34 73
-28 177 21 49 23 108 45 130 48 22 3 38 9 35 14 -3 5 31 47 76 94 87 93 103
136 47 126 -5 -1 -6 3 -2 9 10 16 39 11 58 -10 24 -29 46 -25 81 16 38 45 133
140 172 174 16 14 60 51 98 83 153 129 324 315 310 338 -3 5 -9 7 -14 4 -11
-7 -40 22 -40 39 0 7 43 30 96 51 l96 38 -6 51 c-8 63 -2 82 33 101 24 13 25
14 4 15 -30 0 -36 13 -15 36 191 209 316 461 501 1009 45 132 99 288 121 347
37 100 48 128 106 256 24 53 32 81 13 49 -19 -33 -31 -19 -26 30 3 27 3 42 0
36 -2 -7 -12 -13 -22 -13 -9 0 -24 6 -33 13 -14 11 -11 24 37 127 50 107 52
116 37 138 -11 17 -15 53 -16 140 -1 64 -5 123 -9 130 -15 22 -27 12 -20 -18
5 -29 4 -30 -18 -22 -27 11 -57 2 -99 -28 -15 -11 -30 -20 -32 -20 -1 0 -3 96
-3 212 0 193 -9 393 -19 458 -2 14 -7 52 -11 85 -20 183 -61 390 -117 590 -16
61 -32 117 -33 125 -2 8 -22 69 -45 135 -201 585 -531 1125 -960 1568 -86 89
-134 147 -133 159 3 18 -43 49 -62 42 -6 -3 -27 13 -48 34 -34 35 -35 38 -15
39 48 4 98 106 98 200 0 24 5 43 11 43 6 0 61 -50 122 -111 62 -61 121 -118
132 -128 11 -9 26 -24 33 -33 12 -15 8 -16 -47 -11 -57 5 -61 4 -70 -18 -7
-20 -4 -28 18 -46 14 -12 42 -25 61 -29 19 -3 44 -8 55 -10 17 -4 15 -1 -8 20
l-28 26 30 0 c33 0 38 8 19 29 -11 11 -9 12 7 3 36 -19 181 -193 169 -204 -6
-7 57 -68 70 -68 5 0 -4 15 -22 33 -29 30 -31 34 -16 49 19 18 18 19 -75 90
-52 39 -112 120 -118 160 -4 25 -23 61 -30 55 -2 -3 1 -15 7 -27 20 -38 4 -33
-68 19 -72 53 -103 92 -123 160 -10 34 -17 41 -53 51 -43 12 -67 11 -77 -3
-10 -14 -43 -15 -81 -1 -32 11 -38 11 -38 0 0 -8 6 -18 13 -24 7 -6 24 -34 37
-62 18 -38 21 -53 12 -62 -22 -22 -124 67 -122 107 1 25 0 27 -14 16 -15 -12
-28 -13 -137 -8 -71 4 -79 7 -139 51 -35 25 -68 46 -72 46 -5 0 -6 16 -2 37 6
32 5 35 -10 30 -10 -4 -22 -7 -28 -7 -6 0 -8 -6 -5 -14 4 -9 -12 -3 -41 14
-80 49 -242 142 -337 191 -49 26 -89 52 -88 58 2 5 -14 15 -35 22 -69 22 -60
49 17 49 35 0 42 3 37 15 -5 14 2 15 52 9 112 -13 183 -34 237 -71 37 -26 40
-31 35 -63 -5 -32 -7 -33 -17 -15 -6 11 -26 29 -45 39 -25 15 -17 2 37 -53
103 -104 181 -121 129 -27 l-26 47 23 -5 c13 -3 62 -13 109 -22 86 -16 165
-49 189 -78 7 -9 17 -14 21 -11 11 7 0 45 -12 45 -5 0 -17 18 -27 41 -13 29
-20 36 -24 25 -4 -9 -10 -16 -15 -16 -5 0 -46 23 -92 51 -56 34 -92 49 -107
46 -15 -3 -23 1 -23 9 0 7 -34 45 -75 85 -41 40 -77 81 -81 91 -7 22 -24 24
-24 3 0 -14 -3 -14 -30 0 -16 9 -30 19 -30 24 0 5 -10 11 -22 14 -22 6 -22 6
-4 -8 18 -14 19 -15 2 -15 -17 0 -17 -1 -2 -25 33 -51 7 -53 -149 -15 -44 10
-92 22 -107 25 -29 6 -39 25 -13 25 8 0 15 7 15 16 0 12 -9 14 -45 10 l-45 -5
-27 55 c-14 30 -23 57 -20 60 3 4 18 7 32 7 14 0 25 1 25 2 0 1 -21 10 -47 20
-27 10 -79 37 -118 60 -90 55 -144 72 -252 80 -29 2 -69 6 -90 9 -21 3 -69 8
-108 12 -38 3 -72 9 -75 13 -11 17 -179 36 -354 40 -31 1 -36 4 -27 14 8 11
-3 18 -55 36 -36 13 -67 21 -70 18 -3 -3 15 -17 40 -32 25 -15 46 -28 46 -30
0 -1 -30 4 -67 11 -90 19 -91 19 -99 27 -4 4 -15 7 -24 7 -9 0 -25 6 -35 14
-18 13 -11 14 55 12 71 -2 73 -2 42 11 -30 12 -79 18 -131 15 -16 -2 -21 -6
-17 -17 6 -16 -7 -18 -134 -18 -104 0 -110 2 -121 26 -6 13 -16 24 -22 24 -7
0 -75 4 -153 8 -92 5 -143 4 -147 -2 -4 -7 -24 -2 -51 12 -34 17 -61 22 -122
22 -44 1 -90 -1 -104 -4z m1438 -316 c7 -6 11 -19 8 -29 -11 -43 138 -59 260
-28 125 32 199 22 260 -36 42 -39 43 -62 1 -122 -28 -42 -36 -47 -57 -42 -32
9 -96 42 -157 80 -26 17 -52 30 -57 30 -6 0 6 -11 27 -24 21 -13 34 -27 29
-30 -10 -6 -89 1 -102 9 -5 3 -25 7 -46 10 -22 3 -99 18 -173 34 -74 17 -189
38 -257 48 -68 9 -124 20 -124 23 0 8 78 47 127 64 24 8 69 18 100 22 32 3 59
7 60 8 7 6 90 -8 101 -17z m-1068 -47 c0 -3 -21 -7 -47 -9 -26 -1 -52 -5 -57
-8 -6 -3 -4 1 4 10 8 9 29 23 45 31 27 15 31 15 43 -1 6 -9 12 -20 12 -23z
m-765 5 c70 -13 151 -37 175 -52 28 -18 29 -17 -62 -36 l-68 -14 -6 34 c-9 47
-20 49 -17 2 2 -37 0 -39 -35 -48 -72 -19 -110 -23 -116 -12 -4 5 -9 40 -11
76 l-5 67 58 -6 c31 -3 71 -9 87 -11z m-796 -287 l-43 -103 -104 -52 -104 -52
7 27 c11 46 54 134 88 179 31 41 59 54 72 33 10 -16 17 -12 70 35 27 24 51 42
53 40 2 -2 -15 -50 -39 -107z m4416 -668 c11 -8 29 -26 40 -40 20 -24 20 -24
0 -10 -11 8 -29 23 -40 32 -11 10 -29 24 -40 33 -20 15 -20 15 0 8 11 -5 29
-15 40 -23z m-5777 -337 l23 -18 -36 -38 -35 -37 0 72 c0 59 2 69 13 56 6 -9
22 -25 35 -35z m2761 -384 c10 15 63 10 76 -7 11 -14 45 -7 45 9 0 15 49 10
74 -6 21 -14 25 -14 39 0 17 16 62 21 52 5 -7 -11 28 -14 38 -3 12 11 307 15
307 4 0 -6 6 -8 13 -5 7 2 34 -2 59 -10 26 -7 48 -10 50 -5 2 5 33 0 70 -11
36 -11 70 -19 75 -18 11 3 73 -31 73 -40 0 -4 15 -12 32 -17 58 -17 70 -80 22
-112 -24 -15 -32 -15 -164 11 -62 12 -133 23 -205 32 -74 8 -378 15 -394 8 -9
-3 -40 -6 -69 -4 -38 1 -54 -2 -58 -14 -3 -8 -12 -12 -19 -10 -7 3 -16 0 -20
-5 -9 -15 -25 -4 -19 13 3 9 -3 11 -24 8 -23 -3 -29 -8 -25 -23 4 -14 0 -19
-16 -20 -11 -1 -27 -2 -33 -3 -7 -1 -18 5 -23 12 -9 11 -14 9 -30 -8 -16 -18
-17 -23 -5 -32 12 -8 11 -9 -3 -4 -10 3 -23 6 -28 6 -5 0 -2 11 7 25 15 23 15
25 -1 25 -9 0 -19 -9 -22 -20 -6 -23 -19 -26 -26 -7 -3 8 -13 3 -32 -15 -15
-15 -32 -25 -39 -21 -19 12 -46 10 -46 -3 0 -8 -6 -11 -15 -8 -9 4 -15 0 -15
-7 -1 -8 -7 -3 -14 10 l-13 24 -17 -24 c-9 -13 -16 -20 -16 -16 0 5 -7 2 -15
-7 -8 -8 -40 -20 -70 -26 -31 -6 -61 -17 -68 -24 -9 -11 -14 -10 -24 3 -10 14
-15 11 -45 -23 -28 -32 -38 -37 -57 -31 -18 6 -21 9 -10 16 8 5 9 9 3 9 -6 0
-24 -17 -41 -38 -30 -37 -34 -39 -93 -40 -55 -1 -65 2 -86 25 -31 34 -30 45 5
79 17 15 27 32 24 37 -3 6 -1 7 6 3 6 -4 17 -3 24 2 7 5 27 13 45 17 17 3 32
10 32 15 0 4 7 11 16 14 8 3 12 2 9 -4 -3 -6 -1 -10 4 -10 6 0 11 4 11 9 0 5
17 17 38 26 20 10 54 31 74 47 23 18 39 25 43 18 5 -8 13 -6 25 5 10 9 21 15
26 13 5 -2 9 1 9 6 0 4 22 17 49 28 27 10 61 27 75 37 14 9 39 16 56 15 20 -2
37 4 53 19 18 17 22 18 16 4 -8 -21 9 -22 27 -1 8 10 21 13 36 9 14 -3 23 -1
23 6 0 6 7 9 15 5 8 -3 15 -1 15 4 0 15 63 28 84 18 12 -7 21 -6 25 1z m1334
-144 c6 -6 10 -5 14 3 4 10 8 10 19 1 8 -6 11 -15 8 -20 -3 -5 2 -9 10 -9 9 0
16 6 16 13 1 6 6 2 13 -11 10 -18 15 -20 26 -10 7 7 12 9 11 3 -5 -22 1 -29
10 -15 7 11 10 11 10 2 0 -7 5 -10 10 -7 6 3 10 2 10 -3 0 -6 8 -8 18 -5 11 2
31 -6 49 -21 17 -14 32 -23 35 -21 8 8 60 -44 54 -54 -3 -5 12 -20 34 -35 22
-14 49 -44 60 -66 l21 -40 -27 -25 c-15 -14 -33 -25 -39 -25 -7 0 -16 -7 -19
-16 -4 -11 -13 -13 -28 -9 -27 8 -68 45 -51 45 7 0 10 9 8 20 -2 11 0 18 5 15
4 -3 19 -1 32 4 23 10 23 10 -4 10 -39 1 -57 11 -51 27 4 10 0 12 -12 8 -24
-10 -65 15 -58 35 5 13 3 14 -8 4 -20 -20 -31 -15 -23 9 6 19 4 21 -7 12 -16
-14 -87 -13 -109 1 -18 11 -31 14 -90 21 -54 6 -80 27 -80 66 0 21 6 31 20 35
11 3 20 10 20 17 0 6 11 16 25 23 19 8 23 8 18 0 -4 -7 1 -6 10 2 9 7 14 17
11 22 -7 12 19 7 29 -6z m-2073 -115 c0 -5 -2 -10 -4 -10 -3 0 -8 5 -11 10 -3
6 -1 10 4 10 6 0 11 -4 11 -10z m2108 -85 c-3 -3 -9 2 -12 12 -6 14 -5 15 5 6
7 -7 10 -15 7 -18z m-789 -30 c46 -3 86 -7 90 -9 7 -4 102 -18 146 -21 27 -1
205 -47 245 -63 18 -6 26 -9 43 -12 6 -1 -1 -6 -18 -10 -22 -6 -14 -7 27 -4
50 3 66 -1 139 -37 45 -22 91 -39 103 -38 12 1 34 -3 49 -10 16 -6 32 -9 35
-7 4 2 12 -2 19 -9 10 -10 9 -15 -4 -20 -14 -5 -10 -10 16 -26 38 -23 67 -18
56 9 -4 11 4 7 22 -11 16 -15 32 -27 36 -27 4 0 19 -7 33 -17 19 -12 22 -18
12 -24 -16 -10 -8 -18 39 -34 44 -15 55 -11 27 11 -18 15 -18 15 2 5 12 -6 29
-22 38 -36 l17 -26 -28 7 c-15 3 -35 8 -43 10 -10 3 -8 -2 6 -16 12 -12 34
-22 53 -22 34 -1 51 -16 32 -28 -8 -4 0 -11 21 -19 61 -22 103 -47 100 -59 -1
-7 5 -15 13 -18 8 -4 15 -13 15 -21 0 -8 6 -13 13 -10 6 2 20 -8 29 -22 10
-14 18 -20 18 -12 0 11 3 11 16 0 14 -11 14 -13 0 -21 -9 -5 -16 -13 -16 -18
0 -9 39 -25 53 -22 14 4 71 -48 89 -80 25 -45 8 -81 -50 -106 -34 -15 -51 -18
-65 -10 -10 5 -17 12 -14 14 3 3 1 21 -4 42 -4 21 -4 41 1 48 7 7 -8 20 -48
39 -61 31 -98 59 -114 89 -9 17 -7 18 13 13 23 -6 23 -5 5 8 -11 8 -27 15 -35
15 -28 0 -106 44 -145 82 -22 21 -46 38 -54 38 -8 0 -43 14 -78 30 -35 17 -66
30 -68 28 -3 -2 -11 6 -19 16 -8 11 -19 16 -26 12 -7 -5 -17 -1 -24 7 -17 21
-86 59 -97 52 -5 -3 -18 3 -28 13 -10 10 -40 24 -67 31 -26 7 -61 19 -77 27
-16 8 -33 12 -39 9 -5 -4 -18 -4 -27 0 -9 4 -33 9 -52 10 -50 3 -52 4 -45 14
6 11 -59 26 -73 17 -6 -3 -12 -1 -14 6 -2 6 -14 13 -27 15 -15 2 -20 -1 -15
-9 5 -8 2 -9 -12 -4 -28 12 -57 16 -169 24 -55 5 -107 12 -115 17 -21 13 -50
15 -88 5 -18 -5 -30 -5 -27 0 8 13 -14 23 -33 14 -23 -10 -65 -12 -77 -4 -12
9 -78 6 -94 -4 -6 -4 -15 -4 -21 -1 -5 3 -10 2 -10 -4 0 -7 -26 -9 -71 -6 -39
3 -76 2 -82 -2 -18 -11 -90 -12 -104 -1 -15 12 -86 -9 -78 -23 4 -5 -4 -9 -17
-10 -13 0 -31 -2 -40 -4 -22 -4 -64 28 -71 54 -5 22 15 45 49 55 12 4 34 18
48 31 26 24 76 35 76 16 0 -9 54 7 80 24 14 9 100 13 319 14 51 1 97 -1 101
-4 5 -3 11 -1 15 5 9 14 41 13 57 -2 13 -13 58 -24 58 -14 0 15 -36 36 -63 37
-30 1 -31 1 -7 8 14 5 28 7 31 5 3 -2 43 -5 88 -9z m-1041 -190 c7 -14 12 -38
12 -54 0 -41 -61 -91 -112 -91 -13 0 -29 -5 -36 -12 -9 -9 -12 -9 -12 3 0 10
-2 11 -8 2 -4 -7 -18 -14 -30 -16 -12 -2 -28 -12 -36 -22 -7 -10 -20 -16 -29
-12 -8 3 -18 3 -22 -1 -4 -4 -12 -7 -18 -7 -7 -1 -11 -7 -9 -14 1 -7 -1 -10
-6 -7 -5 3 -28 -8 -52 -24 -23 -15 -49 -26 -56 -23 -8 3 -14 0 -14 -6 0 -6 -7
-8 -17 -4 -11 4 -14 3 -9 -5 7 -11 -6 -17 -27 -13 -5 1 -14 -12 -20 -29 -7
-18 -21 -33 -34 -36 -12 -3 -27 -12 -34 -20 -6 -8 -20 -14 -31 -14 -16 0 -19
-5 -15 -21 4 -15 -1 -23 -21 -32 -16 -7 -27 -20 -27 -32 0 -14 -6 -19 -18 -17
-13 2 -18 -2 -15 -15 1 -10 -7 -32 -20 -50 -12 -17 -22 -37 -22 -43 0 -7 -9
-28 -21 -46 -11 -19 -18 -34 -14 -34 3 0 -9 -13 -27 -30 -18 -16 -38 -30 -45
-30 -7 0 -13 -7 -13 -15 0 -8 -5 -15 -10 -15 -6 0 -30 -9 -54 -21 -45 -21 -86
-23 -88 -4 -1 6 -7 15 -15 20 -11 8 -8 19 13 60 50 94 109 168 230 289 107
106 151 145 179 158 14 6 24 17 21 24 -3 7 2 18 10 25 13 10 17 10 24 -2 7
-11 12 -11 21 -2 9 9 9 16 1 25 -15 19 23 44 43 28 17 -14 26 8 13 34 -8 14
-7 17 4 14 7 -3 14 -14 16 -26 5 -31 22 -27 23 6 0 24 1 25 9 7 7 -18 9 -17
20 12 8 23 17 31 31 28 10 -2 26 3 34 11 13 14 15 14 15 0 0 -23 17 -20 25 4
6 19 65 59 65 44 0 -3 11 1 24 9 22 15 25 15 31 0 5 -14 10 -11 26 16 13 22
25 31 35 27 9 -3 18 -6 20 -6 3 0 2 -6 -2 -12 -4 -7 4 -1 19 15 33 34 60 35
75 2z m933 -179 c5 3 9 1 9 -5 0 -7 22 -9 59 -6 47 4 60 1 65 -11 4 -11 11
-12 23 -6 23 12 86 7 91 -7 2 -6 9 -8 15 -4 7 3 9 3 5 -2 -4 -4 2 -19 12 -33
11 -13 20 -32 20 -41 -1 -15 -30 -63 -30 -48 0 4 -9 3 -19 -3 -35 -18 -143
-12 -164 9 -14 14 -57 15 -57 1 0 -6 -9 -6 -26 0 -14 6 -36 10 -49 10 -12 0
-25 7 -29 15 -3 10 -19 15 -42 15 -33 0 -35 -2 -23 -17 9 -11 10 -14 2 -9 -11
6 -77 13 -178 19 -26 1 -39 -2 -38 -9 3 -17 -65 -28 -82 -14 -10 8 -19 8 -34
0 -12 -6 -21 -8 -21 -5 0 3 -10 -3 -22 -15 -12 -11 -34 -20 -50 -20 -27 0 -73
-17 -133 -48 -98 -50 -212 -117 -222 -129 -6 -8 -17 -16 -25 -17 -28 -5 -58
-18 -58 -25 0 -4 -12 -13 -27 -20 -51 -23 -112 -66 -113 -78 0 -7 -4 -13 -9
-13 -11 0 -185 -129 -189 -141 -6 -16 -92 -69 -112 -69 -12 0 -53 -40 -107
-102 -48 -57 -95 -110 -103 -118 -28 -26 -205 -243 -252 -307 -25 -34 -49 -78
-52 -97 -4 -20 -10 -36 -14 -36 -15 0 -44 -94 -44 -143 0 -29 10 -88 21 -132
43 -156 27 -332 -31 -354 -27 -10 -72 9 -88 38 -16 30 -16 108 -1 199 9 55 10
86 3 95 -5 7 -7 32 -3 57 5 37 10 44 25 42 15 -3 18 1 13 17 -3 12 -1 24 4 27
16 10 10 34 -9 34 -17 0 -17 3 2 64 12 35 24 62 27 60 12 -7 27 20 29 51 3 44
1 52 -10 35 -5 -8 -12 -12 -15 -8 -3 3 5 19 19 34 l25 29 2 -25 c1 -14 1 -28
0 -32 0 -5 3 -8 9 -8 13 0 22 39 18 76 -2 22 1 28 13 26 17 -2 33 23 24 38 -9
14 26 100 41 100 13 0 19 13 15 34 -1 5 5 6 14 3 10 -5 15 0 15 13 0 10 10 26
23 35 15 12 18 19 9 22 -6 3 -9 9 -6 14 3 6 11 6 20 -2 23 -19 44 -3 44 36 0
19 4 35 8 35 4 0 25 25 47 55 22 30 44 55 49 55 14 0 116 112 116 127 0 7 5
13 11 13 5 0 8 -4 5 -9 -3 -5 0 -11 8 -14 13 -5 54 45 68 84 7 18 62 62 91 72
21 8 22 3 1 -17 -8 -9 -11 -16 -5 -16 5 0 18 12 28 26 44 64 97 113 143 133
27 12 53 28 57 35 9 16 66 57 114 81 17 9 27 20 23 27 -5 7 -2 9 8 5 9 -3 26
2 39 11 13 9 35 18 49 20 14 2 29 7 35 13 5 5 16 9 25 9 8 0 26 9 40 20 31 24
47 26 29 3 -10 -12 0 -9 31 8 40 24 88 41 115 44 6 0 36 13 67 28 69 33 125
46 113 27 -8 -12 -4 -12 60 8 11 3 32 4 48 3 15 -1 27 2 27 7 0 6 43 11 98 11
53 1 113 6 132 10 19 4 46 4 58 -1 13 -4 28 -6 33 -2z m852 0 c4 -10 1 -13 -8
-9 -8 3 -12 9 -9 14 7 12 11 11 17 -5z m-1683 -146 c0 -5 -8 -10 -17 -10 -15
0 -16 2 -3 10 19 12 20 12 20 0z m1481 -22 c5 -10 17 -18 25 -18 24 0 115 -41
154 -69 19 -14 55 -45 78 -69 24 -23 51 -41 60 -40 11 2 16 -3 14 -14 -3 -19
13 -24 23 -8 10 16 22 11 28 -11 4 -15 11 -20 21 -16 9 4 16 1 16 -5 0 -9 3
-9 12 0 19 19 37 14 33 -8 -2 -11 0 -18 6 -15 5 4 9 1 9 -5 0 -6 4 -9 9 -5 5
3 13 0 17 -7 4 -7 4 -10 -1 -6 -13 12 -45 -11 -39 -27 10 -24 -15 -45 -53 -45
-27 0 -34 3 -29 15 4 12 -1 14 -24 10 -22 -4 -30 -1 -30 9 0 8 6 17 13 19 6 3
-3 6 -20 6 -19 1 -33 6 -33 14 0 6 -11 13 -24 13 -24 2 -73 42 -69 56 2 5 0 7
-5 7 -4 -1 -10 0 -14 1 -5 1 -18 3 -30 4 -13 1 -22 8 -20 15 1 7 -2 10 -8 6
-5 -3 -10 -2 -10 2 0 5 -9 10 -20 11 -45 4 -50 6 -50 19 0 7 -7 13 -16 13 -8
0 -12 5 -8 11 4 8 -1 9 -16 4 -15 -5 -20 -3 -16 3 4 7 -3 9 -19 6 -15 -2 -25
0 -25 7 0 6 -7 9 -15 5 -9 -3 -20 3 -27 14 -13 21 -38 27 -38 10 0 -17 -26 0
-26 18 -1 9 -5 30 -9 45 l-8 29 66 -4 c36 -1 65 -1 65 2 -1 15 4 19 23 17 11
-1 25 -9 30 -19z m-196 -26 c-8 -8 -25 10 -19 20 4 6 9 5 15 -3 4 -7 6 -15 4
-17z m10 -32 c3 -5 2 -10 -4 -10 -5 0 -13 5 -16 10 -3 6 -2 10 4 10 5 0 13 -4
16 -10z m1105 -64 c0 -3 -4 -8 -10 -11 -5 -3 -10 -1 -10 4 0 6 5 11 10 11 6 0
10 -2 10 -4z m-1631 -60 c5 -4 65 -8 133 -10 67 -2 134 -7 148 -10 13 -3 42
-8 63 -11 62 -10 203 -53 291 -89 87 -37 229 -113 234 -127 2 -5 9 -9 15 -9 7
0 44 -27 82 -60 39 -33 86 -72 105 -86 19 -15 55 -52 80 -82 25 -30 50 -60 55
-66 6 -6 26 -32 44 -59 18 -26 36 -45 42 -42 5 3 6 -1 3 -9 -4 -10 -1 -16 7
-16 8 0 30 -37 49 -81 22 -52 43 -85 57 -91 12 -6 24 -18 27 -27 3 -9 11 -24
18 -34 11 -14 10 -19 -1 -26 -12 -8 -12 -14 -1 -40 14 -35 14 -35 40 -21 14 8
18 6 16 -7 -2 -9 5 -38 15 -64 16 -40 16 -47 4 -43 -8 4 -15 3 -15 0 0 -14 29
-63 46 -77 16 -13 17 -12 11 10 -4 17 -3 21 5 13 6 -6 7 -23 3 -41 l-6 -30
-25 27 -24 27 6 -30 c4 -16 16 -38 28 -48 15 -13 17 -20 9 -24 -18 -7 -16 -24
6 -47 25 -27 39 -96 20 -96 -10 0 -10 -3 -1 -12 15 -15 16 -32 2 -23 -5 3 -10
1 -10 -5 0 -6 6 -13 14 -16 11 -4 13 -12 5 -31 -11 -30 -11 -36 0 -29 5 3 12
-1 15 -10 3 -9 2 -12 -5 -9 -5 4 -17 4 -25 1 -13 -5 -12 -10 2 -38 21 -40 22
-46 29 -181 3 -60 10 -117 15 -127 13 -24 14 -51 1 -31 -19 29 -29 6 -15 -34
26 -75 26 -94 0 -120 -24 -24 -58 -31 -90 -19 -27 10 -18 25 12 19 23 -5 24
-4 6 4 -37 16 -46 46 -49 166 -1 44 -5 103 -10 130 -4 28 -8 60 -8 73 -1 12
-4 22 -9 22 -4 0 -3 11 2 25 6 15 6 26 -1 30 -5 4 -7 10 -5 14 8 12 9 94 3
131 -5 25 -4 29 2 15 9 -18 10 -18 10 6 1 14 -4 30 -9 35 -6 6 -13 35 -15 65
-2 30 -15 76 -28 104 -15 30 -23 62 -21 79 2 16 -1 35 -7 42 -6 7 -12 25 -14
40 -1 14 -7 29 -12 33 -6 3 -21 34 -33 69 -13 35 -36 81 -51 102 -15 21 -31
55 -35 75 -4 21 -21 53 -38 73 -17 20 -25 33 -18 28 14 -8 15 -5 6 18 -3 9
-11 16 -18 16 -14 0 -41 41 -37 58 1 8 -7 16 -18 19 -12 3 -21 11 -21 17 0 16
-33 43 -47 39 -6 -2 -14 5 -18 16 -3 12 -10 21 -16 21 -5 0 -15 16 -24 36 -8
19 -20 34 -27 32 -7 -1 -27 12 -45 30 -17 18 -29 32 -26 32 3 0 -1 8 -8 17
-12 15 -12 16 1 8 13 -8 13 -7 1 9 -8 10 -23 15 -33 13 -10 -3 -18 -1 -18 5 0
5 -4 7 -8 4 -13 -8 -80 41 -86 62 -4 11 -18 24 -32 30 -31 15 -37 15 -29 2 4
-6 -4 -6 -22 1 -36 13 -54 29 -47 40 3 5 -5 10 -18 10 -56 3 -92 10 -98 19 -9
14 -113 40 -183 45 -32 3 -63 8 -69 11 -5 3 -40 6 -78 5 -38 0 -72 4 -75 9 -3
6 -21 8 -38 6 -115 -15 -137 -20 -137 -29 0 -5 -22 -8 -55 -5 -111 9 -149 106
-49 124 16 3 30 6 31 8 6 6 133 7 142 2z m1118 -26 c1 -11 -2 -22 -6 -24 -6
-4 -7 26 -2 42 3 8 7 -1 8 -18z m-1492 -13 c18 -18 33 -93 16 -83 -7 5 -11 -1
-11 -14 0 -15 -11 -26 -37 -37 -21 -9 -41 -16 -45 -15 -4 1 -22 -5 -42 -13
-19 -8 -42 -12 -50 -9 -9 3 -16 1 -16 -5 0 -6 -5 -11 -11 -11 -5 0 -7 5 -3 11
4 8 0 8 -15 0 -11 -7 -21 -17 -21 -22 0 -6 -7 -9 -15 -5 -8 3 -15 1 -15 -5 0
-7 -10 -9 -26 -5 -22 6 -25 4 -20 -9 4 -12 1 -15 -17 -13 -17 2 -21 -1 -19
-16 2 -10 -1 -15 -7 -12 -6 4 -25 -9 -43 -29 -45 -50 -144 -115 -175 -115 -8
0 -17 9 -20 20 -3 11 -13 20 -22 20 -22 0 -41 19 -41 42 0 10 24 36 53 58 28
22 58 45 64 50 7 6 24 15 38 20 14 5 25 14 25 20 0 5 8 10 19 10 11 0 22 10
26 23 4 13 8 17 12 10 8 -21 26 -15 20 7 -6 24 12 38 25 19 7 -10 8 -5 6 18
-3 18 -1 30 4 27 4 -3 8 -16 8 -29 0 -18 4 -23 15 -19 8 4 15 15 15 26 0 11 5
18 13 15 6 -2 18 3 25 12 8 9 11 11 8 4 -11 -20 12 -25 23 -4 12 21 68 34 75
17 3 -6 8 -1 12 12 7 24 31 25 26 1 -1 -8 4 -5 13 5 8 11 15 22 15 25 0 13
101 11 115 -2z m1585 -107 c0 -5 -2 -10 -4 -10 -3 0 -8 5 -11 10 -3 6 -1 10 4
10 6 0 11 -4 11 -10z m224 -81 c-3 -5 2 -9 10 -9 25 0 84 -44 90 -67 4 -13 10
-23 15 -23 18 0 66 -57 63 -73 -2 -10 3 -17 12 -17 15 0 21 -17 17 -47 -1 -7
10 -15 24 -19 19 -5 25 -12 23 -28 -2 -12 2 -20 9 -19 12 3 10 -27 -3 -49 -5
-8 -2 -9 9 -5 19 7 33 -10 29 -34 -2 -10 6 -19 20 -23 18 -5 20 -8 9 -15 -11
-7 -11 -10 1 -17 7 -5 19 -20 26 -34 7 -14 23 -40 36 -58 14 -18 27 -50 31
-72 4 -22 10 -40 15 -40 7 0 21 -51 20 -75 -2 -66 -6 -105 -12 -111 -13 -12
-69 18 -82 45 -7 14 -19 44 -26 66 -7 22 -28 73 -47 113 -18 39 -33 76 -33 81
0 5 -7 11 -15 15 -8 3 -15 15 -15 26 0 13 -7 20 -19 20 -23 0 -36 16 -22 25 6
3 8 12 4 21 -5 13 -7 13 -22 0 -15 -14 -18 -13 -29 4 -9 14 -9 20 -1 20 8 0 8
5 -1 15 -9 11 -9 15 -1 15 7 0 9 5 6 10 -4 6 -11 8 -16 5 -5 -4 -9 -1 -9 4 0
6 -9 11 -20 11 -11 0 -20 7 -20 15 0 8 -5 15 -11 15 -6 0 -9 9 -6 20 4 16 0
20 -18 20 -27 0 -83 65 -62 73 12 5 -17 11 -40 8 -7 -1 -13 7 -13 18 0 11 6
22 13 24 6 3 -3 6 -21 6 -22 1 -34 7 -38 19 -3 9 -10 27 -16 38 -13 27 7 74
38 89 25 12 107 7 98 -6z m-1674 -136 c8 -3 29 -5 47 -4 32 2 53 -18 53 -53 0
-20 -43 -42 -100 -51 -25 -4 -54 -9 -65 -11 -11 -2 -32 -6 -48 -9 -40 -8 -116
-34 -162 -57 -68 -35 -165 -102 -165 -114 0 -7 -8 -15 -19 -19 -23 -7 -107
-92 -103 -105 1 -6 -1 -9 -5 -8 -5 2 -10 -1 -13 -7 -3 -5 -21 -23 -40 -40 -44
-38 -49 -45 -43 -61 2 -6 -1 -15 -6 -19 -6 -3 -9 -10 -6 -15 3 -4 -2 -10 -10
-14 -8 -3 -15 0 -15 6 0 6 -9 3 -21 -8 -18 -17 -19 -19 -4 -30 15 -11 14 -15
-3 -44 -14 -22 -22 -28 -28 -19 -5 9 -10 5 -16 -12 -7 -17 -5 -26 6 -35 17
-12 11 -24 -11 -24 -7 0 -13 9 -13 20 0 11 -4 20 -9 20 -15 0 -19 -23 -8 -44
8 -16 6 -18 -7 -13 -13 5 -16 -1 -13 -36 1 -29 -2 -41 -10 -40 -8 2 -13 -7
-13 -22 0 -13 -8 -29 -17 -34 -10 -6 -12 -11 -5 -11 6 0 12 -5 12 -10 0 -7 -6
-7 -20 0 -19 10 -19 8 -13 -35 4 -31 0 -59 -12 -91 -11 -28 -15 -57 -11 -77 3
-18 2 -27 -2 -20 -4 7 -13 9 -19 5 -8 -5 -7 -18 3 -47 7 -22 11 -50 7 -63 -4
-19 -8 -21 -21 -10 -14 11 -15 10 -8 -7 24 -59 24 -74 5 -98 -10 -14 -31 -27
-46 -30 -16 -3 -39 -9 -53 -12 -20 -5 -30 0 -49 26 -13 17 -25 48 -28 68 -2
20 -6 42 -8 49 -3 6 -1 12 4 12 4 0 8 6 9 13 4 33 20 90 22 77 3 -20 19 53 27
120 3 30 9 57 13 60 3 3 14 21 24 40 12 24 13 36 5 39 -6 2 -7 6 -3 10 11 7
44 100 44 121 0 8 11 24 25 34 14 11 25 29 25 42 0 12 4 26 10 29 6 4 7 -1 3
-11 -4 -12 -3 -15 5 -10 7 4 12 16 12 27 0 10 9 28 20 39 11 11 18 20 15 20
-3 0 3 12 12 27 10 15 17 30 16 33 -3 10 12 27 35 39 13 7 21 15 18 18 -10 10
26 43 45 43 19 0 41 31 37 51 -2 7 15 22 37 34 22 12 40 28 41 36 3 38 5 41
24 36 15 -4 22 2 32 29 6 19 17 34 23 34 6 0 34 21 62 48 62 57 133 107 153
108 8 0 28 6 43 12 15 7 39 15 53 18 13 3 27 10 30 15 3 5 17 9 32 10 15 0 47
6 72 13 44 12 80 12 110 -1z m395 -31 c-5 -14 -4 -14 12 -1 24 21 89 24 96 6
5 -15 46 -15 68 -1 8 4 9 3 5 -4 -4 -7 -4 -12 1 -13 43 -3 66 -10 79 -23 8 -9
20 -16 25 -16 6 0 8 -4 5 -8 -3 -4 8 -7 24 -6 16 1 29 -1 28 -5 -2 -20 4 -32
15 -28 6 2 17 -3 24 -12 9 -11 12 -12 13 -3 0 7 5 10 10 7 6 -4 7 -11 4 -17
-5 -7 -2 -9 8 -5 10 3 26 -5 41 -21 19 -21 23 -32 17 -49 -9 -23 -48 -49 -65
-44 -5 2 -20 5 -32 7 -48 9 -74 24 -71 41 4 25 -159 86 -258 97 -11 1 -26 6
-34 11 -9 5 -15 4 -18 -3 -2 -7 -8 -12 -13 -12 -6 0 -8 4 -4 9 3 5 1 12 -5 16
-5 3 -10 -3 -10 -14 0 -29 -17 -26 -24 4 -6 25 -7 25 -38 9 -28 -15 -30 -15
-25 0 4 11 1 16 -11 16 -10 0 -13 3 -7 8 6 4 10 17 9 29 -1 12 3 20 8 17 4 -3
6 -9 4 -13 -3 -4 1 -8 9 -8 8 0 13 2 10 5 -2 3 0 13 6 23 11 22 55 19 52 -2
-2 -8 4 -4 13 8 18 25 39 21 29 -5z m-1390 -134 c25 4 85 -15 83 -27 -3 -12
15 -66 24 -72 5 -3 -9 -21 -32 -40 -23 -19 -56 -47 -74 -64 -18 -16 -35 -30
-37 -31 -34 -9 -49 -18 -49 -29 0 -8 -5 -17 -12 -21 -7 -4 -8 -3 -4 4 4 7 2
12 -4 12 -6 0 -16 -13 -21 -30 -6 -16 -18 -30 -26 -30 -8 0 -12 -4 -8 -9 3 -5
1 -12 -5 -16 -5 -3 -10 -17 -10 -31 0 -13 -10 -34 -22 -46 -13 -13 -24 -27
-24 -33 -5 -32 -18 -54 -35 -58 -10 -3 -19 -13 -19 -22 0 -9 4 -14 9 -11 17
11 0 -59 -20 -80 -19 -20 -27 -50 -10 -40 14 9 20 -32 7 -44 -7 -5 -16 -7 -19
-4 -4 4 -2 -8 3 -26 5 -17 7 -44 5 -58 -11 -66 -13 -92 -5 -97 4 -2 7 -28 6
-57 -1 -29 2 -63 6 -75 4 -12 3 -23 -3 -25 -11 -4 -20 -128 -9 -128 9 0 4
-206 -6 -221 -5 -8 -10 -36 -11 -64 -6 -105 -41 -170 -155 -289 -53 -54 -69
-66 -96 -66 -59 0 -96 63 -69 116 8 16 40 56 70 89 63 70 91 119 83 148 -3 11
5 38 17 61 13 24 22 59 22 86 0 38 3 45 20 45 13 0 21 8 23 22 2 17 -1 20 -15
17 -16 -4 -19 1 -20 36 -1 22 2 38 7 35 15 -9 21 14 10 36 -7 12 -18 18 -26
15 -17 -7 -18 6 -2 22 10 10 16 8 29 -9 9 -13 19 -17 22 -12 4 6 -3 22 -14 37
-17 22 -18 26 -5 26 21 0 20 7 -3 37 -19 24 -19 53 1 53 5 0 6 5 3 10 -3 6 -1
10 6 10 10 0 10 3 2 11 -6 6 -9 18 -6 25 3 8 0 14 -6 14 -6 0 -11 4 -11 9 0 4
11 6 25 3 27 -5 33 9 12 26 -15 13 -14 90 2 120 6 12 11 25 10 29 -1 4 -1 21
0 37 1 21 5 27 16 22 18 -6 20 28 5 69 -8 22 -6 30 13 49 17 17 24 36 25 66 1
24 9 52 18 61 9 10 18 29 19 41 4 35 36 108 47 108 5 0 7 4 4 8 -3 5 8 22 24
37 17 16 30 34 30 41 0 7 5 16 12 20 7 4 8 3 4 -4 -4 -7 -2 -12 3 -12 6 0 11
7 11 15 0 8 16 32 35 53 19 22 32 42 28 46 -3 3 -1 6 5 6 7 0 12 6 12 14 0 15
43 48 48 36 1 -4 14 -5 27 -2z m-2995 -10 c0 -24 -12 -58 -19 -54 -4 3 -5 -11
-3 -29 3 -29 -1 -39 -29 -65 l-34 -31 -3 87 c-2 48 0 89 3 92 3 3 17 -5 32
-19 18 -16 24 -19 20 -8 -5 16 9 39 25 39 4 0 8 -6 8 -12z m2497 -30 c-3 -8
-6 -5 -6 6 -1 11 2 17 5 13 3 -3 4 -12 1 -19z m3274 -51 c-10 -9 -11 -8 -5 6
3 10 9 15 12 12 3 -3 0 -11 -7 -18z m-748 -45 c-6 -25 30 -81 86 -136 33 -32
79 -85 103 -118 24 -34 62 -86 84 -117 101 -137 127 -245 110 -461 -1 -14 2
-29 5 -35 4 -5 3 -34 -2 -63 -8 -40 -7 -57 2 -68 7 -8 14 -29 16 -46 3 -26 1
-29 -12 -18 -13 11 -15 8 -15 -20 0 -27 3 -31 19 -27 16 4 18 0 15 -32 -1 -19
-8 -37 -13 -39 -16 -5 -13 -38 3 -51 11 -10 15 -8 19 6 4 15 5 14 6 -4 1 -29
-19 -40 -34 -20 -7 10 -15 17 -19 17 -12 0 -6 -28 9 -40 15 -13 11 -35 -6 -25
-15 10 -10 -12 6 -25 17 -14 20 -60 4 -60 -8 0 -7 -6 2 -17 8 -9 9 -14 3 -10
-8 4 -11 -2 -10 -18 0 -14 4 -25 9 -25 4 0 7 -4 7 -9 0 -5 -9 -7 -20 -4 -24 6
-29 -24 -5 -33 8 -4 13 -9 11 -13 -3 -4 -1 -24 4 -44 4 -20 5 -39 1 -42 -4 -2
-7 -27 -5 -54 1 -38 -2 -51 -12 -51 -18 0 -18 -9 0 -52 17 -39 11 -82 -10 -74
-7 3 -16 1 -19 -4 -3 -5 4 -11 15 -15 40 -13 -3 -75 -57 -83 -29 -3 -53 23
-55 61 -3 74 -3 123 1 132 8 17 14 59 13 99 0 22 3 34 7 27 5 -7 7 14 7 46 -1
32 -5 64 -9 71 -5 7 -3 12 4 12 10 0 10 3 1 12 -14 14 -16 48 -3 48 9 0 6 160
-5 208 -2 12 2 35 10 50 9 18 11 33 5 43 -12 19 -11 32 1 24 7 -4 8 8 4 34 -5
30 -3 41 6 41 10 0 10 3 1 14 -6 8 -11 18 -10 22 1 5 -1 22 -6 37 -5 19 -3 37
6 54 11 21 11 27 2 30 -14 5 -8 50 8 68 12 12 11 45 0 45 -17 0 -23 41 -11 71
11 27 10 32 -9 50 -16 15 -19 24 -12 33 11 13 4 56 -10 56 -5 0 -9 8 -9 18 0
27 -23 83 -53 129 -15 24 -27 46 -27 51 0 5 -9 17 -20 27 -11 10 -17 22 -13
28 3 5 -1 15 -9 21 -8 6 -16 16 -18 21 -7 23 -33 55 -46 55 -8 0 -14 3 -14 8
0 4 -23 32 -50 62 -55 61 -60 83 -28 117 21 23 45 26 41 5z m-628 -30 c36 -19
95 -42 112 -42 21 0 166 -102 214 -150 27 -27 49 -44 51 -39 5 14 108 -132
150 -212 20 -40 49 -104 64 -143 14 -39 30 -80 35 -91 20 -44 35 -144 32 -215
-3 -87 -3 -127 -2 -172 1 -18 -2 -91 -6 -162 -5 -105 -4 -127 7 -121 7 3 6 1
-2 -7 -10 -9 -16 -32 -16 -68 -1 -67 -14 -316 -19 -350 -2 -14 -6 -45 -9 -70
-8 -72 -17 -120 -33 -195 -8 -38 -16 -78 -18 -88 -37 -173 -184 -530 -312
-757 -30 -52 -61 -108 -70 -125 -9 -16 -32 -55 -52 -85 -20 -31 -45 -72 -55
-92 -35 -66 -118 -148 -157 -157 -43 -10 -64 0 -83 37 -20 38 -10 74 32 119
145 155 256 299 245 316 -3 5 -1 7 4 4 12 -8 63 65 63 90 0 9 8 26 18 37 25
29 103 156 145 240 24 46 34 78 31 98 -2 17 5 47 16 69 11 21 20 47 20 58 0
24 20 71 31 71 4 0 9 -6 12 -12 2 -7 15 23 29 67 14 44 24 83 21 88 -2 4 -13
2 -24 -3 -23 -13 -23 -10 -3 38 15 36 30 100 41 176 4 26 8 34 14 25 15 -25
22 0 24 83 3 93 -7 135 -16 73 -6 -39 -6 -39 -8 12 0 28 4 55 9 58 6 3 10 18
10 32 0 15 3 24 6 21 5 -6 8 -19 17 -85 6 -40 17 -38 18 3 1 21 2 46 3 54 1 8
-4 32 -11 54 -17 51 -16 76 2 76 12 0 14 10 10 46 -2 25 -7 49 -10 54 -13 22
-13 158 0 184 8 15 11 40 8 61 -4 23 -2 35 6 35 14 0 15 37 1 45 -6 4 -8 10
-5 15 3 4 7 29 10 55 3 35 1 46 -8 42 -7 -3 -13 7 -14 25 -2 25 0 28 12 18 28
-23 15 66 -17 116 -16 25 -24 42 -17 39 11 -7 -78 168 -110 215 -9 14 -23 38
-31 55 -22 44 -153 173 -193 190 -34 14 -65 41 -34 29 31 -11 25 15 -6 34 -54
31 -107 47 -197 56 -25 3 -67 9 -95 15 -27 5 -53 7 -57 5 -3 -2 -9 0 -12 4 -3
5 -17 8 -31 7 -31 -4 -32 3 -2 15 20 8 20 9 2 9 -11 0 -40 -8 -64 -19 -24 -11
-50 -20 -57 -20 -8 0 -46 -16 -84 -35 -39 -19 -72 -35 -75 -35 -11 2 -155 -72
-155 -79 0 -4 -22 -32 -48 -62 -57 -63 -145 -205 -139 -222 3 -7 -4 -22 -15
-34 -11 -12 -21 -38 -23 -58 -2 -20 -8 -42 -13 -48 -9 -12 -19 -46 -27 -97 -2
-14 -6 -38 -9 -55 -3 -16 -2 -57 2 -91 9 -67 6 -88 -10 -78 -7 5 -8 -6 -3 -32
10 -48 13 -210 5 -244 -4 -13 -3 -47 2 -74 13 -86 -12 -262 -41 -286 -11 -9
-30 -55 -46 -112 -8 -32 -20 -58 -25 -58 -13 0 -52 -78 -45 -90 3 -5 1 -12 -5
-15 -6 -4 -29 -32 -52 -63 -23 -31 -66 -82 -96 -113 -29 -31 -81 -93 -116
-139 -91 -118 -171 -166 -217 -127 -22 18 -47 53 -31 43 8 -5 12 1 12 19 0 19
19 45 73 97 39 39 79 73 87 74 16 3 62 55 55 62 -7 8 74 94 105 114 17 10 30
24 30 32 0 8 13 28 29 45 15 16 34 45 41 63 7 18 18 39 24 47 8 11 8 13 -2 7
-7 -4 1 17 19 48 17 32 29 60 26 63 -4 3 5 25 19 50 30 50 47 110 32 115 -6 2
-4 27 5 63 8 33 14 77 12 97 -1 21 1 35 6 32 5 -3 9 3 9 14 0 10 3 22 7 26 11
10 3 89 -10 105 -10 12 -9 13 1 7 11 -7 12 -4 4 10 -5 11 -7 25 -4 33 2 8 0
11 -5 8 -14 -9 -8 180 6 216 6 16 9 32 6 37 -3 5 0 12 5 15 8 5 6 13 -6 26 -9
10 -13 19 -7 19 5 0 10 6 11 13 3 44 24 157 34 184 6 17 19 34 28 36 11 3 20
19 24 42 4 21 12 45 17 54 5 9 18 42 30 74 13 36 29 62 42 69 12 5 42 35 66
65 25 32 73 73 115 100 39 25 73 49 76 53 15 23 140 72 220 87 122 23 308 20
355 -5z m-100 -336 c11 -2 29 -8 39 -12 14 -5 17 -4 11 5 -11 19 25 7 123 -40
134 -65 272 -215 310 -339 15 -48 17 -105 17 -440 0 -395 -2 -434 -36 -625 -6
-33 -13 -71 -15 -85 -23 -128 -110 -386 -185 -547 -44 -94 -157 -297 -186
-333 -6 -8 -40 -53 -75 -100 -35 -47 -73 -96 -85 -110 -54 -62 -63 -73 -63
-79 0 -4 -17 -25 -37 -47 -21 -22 -67 -74 -103 -114 -117 -133 -137 -150 -176
-142 -30 5 -64 47 -64 77 0 43 45 100 157 203 114 104 153 149 153 174 0 8 14
27 30 43 17 16 30 34 30 40 0 7 11 24 24 38 23 25 25 25 28 6 2 -15 13 -6 50
46 l47 65 -25 6 -25 6 36 36 c19 19 35 39 35 43 0 18 64 109 70 99 5 -8 10 -7
17 2 17 23 46 102 49 138 l3 35 -19 -40 c-21 -46 -27 -40 -6 8 7 18 26 46 41
62 l27 30 -6 -30 c-4 -16 -9 -43 -11 -60 -5 -28 -4 -28 17 10 12 22 25 65 28
95 4 44 8 55 22 54 17 -2 29 30 33 91 4 60 26 144 44 164 11 13 16 30 13 46
-3 18 0 25 12 25 9 0 16 8 16 20 0 11 -4 20 -10 20 -5 0 -1 23 10 50 23 58 24
64 10 55 -6 -4 -10 5 -10 21 0 22 2 24 15 14 26 -22 38 -1 30 54 -10 72 -10
245 -1 356 12 136 13 180 3 180 -4 0 -4 8 1 18 9 19 9 46 -2 80 -7 21 1 27 27
23 11 -2 8 62 -5 100 -10 31 -19 45 -64 104 -57 75 -84 115 -84 124 0 5 -6 11
-12 14 -7 2 -9 8 -5 13 5 5 17 -2 27 -16 10 -14 21 -22 25 -19 9 10 -53 58
-83 65 -15 4 -37 13 -50 21 -24 15 -203 76 -258 87 -45 10 -155 -50 -217 -116
-26 -29 -46 -57 -44 -62 2 -6 -9 -21 -25 -34 -15 -13 -28 -31 -28 -39 0 -9
-15 -45 -32 -82 -30 -59 -33 -75 -33 -152 0 -48 -3 -85 -8 -82 -4 2 -5 8 -3
12 3 4 1 13 -4 21 -6 10 -7 -5 -4 -40 17 -173 -3 -535 -31 -556 -8 -6 -20 -44
-26 -85 -7 -41 -19 -80 -26 -87 -7 -7 -13 -19 -14 -25 0 -7 -2 -22 -5 -35 -2
-14 0 -21 6 -17 5 3 10 2 10 -4 0 -5 -4 -12 -9 -16 -5 -3 -17 -29 -27 -58 -9
-28 -34 -84 -55 -123 -21 -39 -36 -74 -32 -78 3 -3 1 -6 -4 -6 -6 0 -28 -29
-48 -65 -29 -53 -135 -176 -135 -157 0 15 -48 -41 -87 -100 -24 -37 -49 -70
-56 -74 -6 -4 -5 1 4 12 30 36 33 48 6 28 -26 -20 -64 -74 -51 -74 15 0 -51
-62 -75 -71 -31 -12 -80 6 -82 30 -4 49 37 124 74 137 9 3 17 9 17 13 0 5 11
24 24 44 13 19 22 37 20 39 -2 3 12 20 31 38 19 19 35 39 35 45 0 5 12 19 27
30 43 32 83 77 83 93 0 9 16 32 34 51 19 20 51 53 70 74 20 21 36 34 36 30 0
-13 27 30 44 71 14 33 14 37 1 26 -13 -11 -14 -10 -9 4 3 9 10 16 16 16 5 0 8
6 6 13 -3 18 20 83 61 167 34 72 36 79 33 168 -2 69 2 102 14 127 16 34 14
115 -4 167 -5 13 -7 37 -5 53 1 17 3 107 3 200 0 94 5 197 11 230 11 61 66
189 101 235 40 52 121 130 129 124 5 -3 33 6 63 21 72 35 206 50 291 31z m106
-391 c83 -43 106 -117 113 -365 1 -41 -1 -79 -4 -85 -3 -5 -5 -100 -6 -210 -1
-110 -4 -219 -7 -242 -4 -24 -9 -62 -13 -85 -3 -24 -7 -50 -9 -58 -2 -8 -7
-31 -10 -50 -24 -147 -102 -373 -187 -544 -108 -216 -207 -356 -378 -535 -14
-14 -57 -62 -95 -105 -134 -152 -163 -174 -204 -161 -39 12 -33 36 20 85 28
26 49 52 46 57 -4 6 0 19 9 29 14 18 15 18 4 -3 -6 -13 -7 -23 -3 -23 8 0 53
61 53 72 0 3 41 45 90 94 92 90 136 147 126 162 -3 5 8 22 24 37 16 15 27 32
24 36 -2 5 4 17 16 29 11 11 20 26 21 33 1 6 4 1 8 -11 6 -22 9 -20 43 29 38
55 40 69 8 69 -17 0 -16 3 6 27 14 15 32 41 40 58 32 66 39 75 55 75 18 0 49
74 49 117 0 30 -20 20 -21 -10 0 -13 -3 -16 -6 -9 -6 16 14 58 39 84 17 17 18
16 15 -32 -2 -28 -2 -50 -1 -50 12 0 35 83 33 120 -3 41 -1 45 19 44 17 0 22
5 23 25 0 14 2 46 4 71 2 25 4 53 5 63 2 34 20 68 31 61 8 -5 10 1 7 20 -3 16
0 33 9 41 8 9 11 24 7 39 -3 14 1 37 10 55 14 26 14 31 2 31 -10 0 -12 7 -8
22 3 12 7 17 10 10 2 -6 8 -12 13 -12 15 0 27 43 19 65 -16 44 -21 77 -10 70
6 -4 7 2 2 17 -5 13 -7 95 -6 183 2 152 -4 228 -21 268 -5 12 -3 17 9 17 34 0
11 115 -31 151 -30 27 -60 39 -102 42 -41 2 -47 17 -6 17 13 0 26 4 29 9 7 10
-77 -5 -104 -19 -27 -14 -40 -42 -40 -83 0 -18 -3 -37 -7 -41 -4 -3 -8 -17
-10 -29 -2 -12 -7 -42 -12 -67 -11 -51 -11 -80 -1 -80 4 0 6 -10 4 -22 -7 -45
-7 -54 -6 -141 1 -52 6 -86 11 -82 5 3 3 -8 -6 -25 -11 -23 -12 -38 -5 -59 6
-16 6 -33 2 -37 -10 -10 -22 -113 -24 -191 0 -51 -9 -67 -19 -40 -3 6 -6 -17
-6 -52 -1 -61 -6 -86 -37 -196 -8 -28 -13 -62 -11 -75 2 -14 -2 -30 -9 -38 -7
-7 -11 -18 -8 -26 6 -17 -35 -128 -46 -121 -8 5 -50 -84 -50 -105 0 -7 -11
-21 -24 -31 -24 -19 -41 -59 -25 -59 5 0 0 -10 -11 -22 -35 -39 -97 -120 -152
-197 -29 -41 -70 -92 -90 -114 -21 -22 -38 -43 -38 -47 0 -4 -9 -10 -20 -13
-10 -3 -32 -25 -47 -50 -34 -54 -56 -86 -48 -69 9 18 2 15 -31 -13 -53 -46
-114 -25 -114 38 0 37 33 97 54 97 12 0 25 18 30 40 5 20 29 50 36 45 5 -3 12
5 16 19 3 14 12 30 20 37 8 6 12 14 10 18 -4 6 58 74 128 141 14 14 24 30 22
37 -3 7 12 26 34 44 21 17 43 43 49 56 6 13 16 21 21 18 6 -3 10 -1 10 4 0 6
7 11 16 11 17 0 48 65 38 82 -5 7 -2 8 6 3 10 -6 12 -4 7 8 -6 17 28 95 76
171 28 44 31 57 32 133 1 68 5 86 20 96 17 14 21 55 12 157 -2 19 1 41 6 48 5
7 11 112 12 235 2 122 6 236 9 252 3 17 8 68 12 115 4 47 10 87 15 90 4 3 9
26 10 50 5 88 99 164 202 163 35 -1 46 2 36 9 -25 17 95 1 132 -17z m568 -59
c7 -8 8 -17 3 -20 -6 -3 -12 3 -15 14 -6 24 -4 25 12 6z m-1469 -78 c0 -18 -2
-20 -9 -8 -6 8 -7 18 -5 22 9 14 14 9 14 -14z m361 -39 c-9 -22 -10 -22 -10
-3 -1 11 2 24 6 27 12 12 14 0 4 -24z m-1714 -11 c-3 -8 -6 -5 -6 6 -1 11 2
17 5 13 3 -3 4 -12 1 -19z m859 -281 c3 -3 -14 -184 -21 -232 -12 -76 -32
-151 -49 -182 -19 -38 -20 -47 -3 -37 6 4 2 -4 -10 -18 -13 -13 -23 -37 -23
-52 0 -21 -4 -27 -15 -23 -18 7 -32 -13 -16 -22 6 -4 9 -15 5 -25 -5 -13 -9
-14 -20 -5 -11 9 -14 7 -14 -10 0 -12 4 -20 8 -17 5 3 9 -1 9 -8 0 -20 -23 -9
-35 17 -9 18 -11 19 -11 5 -1 -10 -6 -18 -11 -18 -7 0 -7 -6 0 -20 6 -11 8
-21 5 -21 -3 -1 -11 -2 -17 -3 -7 -1 -12 -8 -10 -15 2 -9 -5 -12 -22 -9 -19 4
-25 1 -24 -11 3 -35 -3 -50 -21 -56 -10 -3 -23 -15 -29 -28 -6 -12 -11 -16
-11 -9 -1 6 -6 12 -12 12 -6 0 -9 -7 -5 -15 3 -8 3 -22 0 -30 -7 -17 -44 -21
-44 -4 0 5 5 7 12 3 7 -4 8 -3 4 4 -10 17 -26 15 -26 -2 0 -21 -36 -29 -62
-14 -13 7 -26 11 -29 11 -4 -1 -14 6 -24 17 -25 27 -15 61 25 87 19 12 40 27
45 32 19 19 40 46 38 48 -8 9 -1 33 8 31 11 -3 44 41 55 74 3 9 19 22 35 28
18 8 28 19 27 29 -2 9 3 15 11 13 9 -2 12 5 9 22 -4 19 0 27 14 32 11 3 17 12
14 19 -5 15 20 28 36 19 7 -5 9 2 4 20 -6 23 -3 29 14 33 20 5 28 23 10 23 -5
0 -7 7 -4 15 4 8 11 12 17 8 6 -4 8 2 5 15 -4 12 -2 22 3 22 5 0 8 3 8 8 -1 4
-1 9 0 12 1 3 4 30 6 60 13 165 24 186 94 176 25 -3 45 -7 47 -9z m1947 -172
c4 -8 2 -17 -3 -20 -6 -4 -10 3 -10 14 0 25 6 27 13 6z m-518 -184 c3 -5 1
-12 -5 -16 -5 -3 -10 1 -10 9 0 18 6 21 15 7z m255 -36 c0 -8 -4 -15 -10 -15
-5 0 -7 7 -4 15 4 8 8 15 10 15 2 0 4 -7 4 -15z m-550 -30 c0 -8 -4 -15 -10
-15 -5 0 -7 7 -4 15 4 8 8 15 10 15 2 0 4 -7 4 -15z m173 -370 c-3 -9 -8 -14
-10 -11 -3 3 -2 9 2 15 9 16 15 13 8 -4z m997 -20 c0 -8 6 -15 14 -15 7 0 19
-7 26 -15 10 -12 6 -28 -22 -88 -41 -84 -51 -118 -51 -169 0 -28 -3 -35 -15
-30 -10 3 -13 1 -8 -6 4 -7 14 -12 22 -12 11 0 12 -4 5 -19 -6 -10 -7 -22 -3
-26 4 -5 1 -5 -6 -1 -7 4 -10 11 -8 15 3 4 -1 8 -9 8 -18 0 -19 -11 -4 -39 9
-16 8 -19 -2 -13 -9 6 -11 3 -6 -8 3 -9 3 -16 -1 -16 -17 3 -23 -2 -15 -13 10
-17 11 -58 1 -52 -4 3 -8 0 -8 -7 0 -8 -4 -8 -15 1 -12 10 -15 10 -15 0 0 -7
-7 -10 -15 -6 -8 3 -15 3 -15 0 0 -2 10 -9 23 -14 15 -6 17 -9 6 -9 -9 -1 -20
-8 -23 -17 -4 -11 -15 -14 -40 -11 -42 6 -56 14 -56 33 0 9 -5 12 -12 8 -7 -4
-3 8 8 27 11 19 19 48 19 64 -1 17 2 33 7 36 4 3 9 18 10 33 1 15 11 32 21 37
9 6 15 14 12 20 -4 5 -1 9 5 9 7 0 9 8 5 20 -4 12 -2 20 5 20 6 0 8 5 5 10 -3
6 4 10 16 10 18 0 20 3 11 12 -9 9 -7 14 6 24 10 8 12 13 5 14 -7 0 -13 5 -13
11 0 5 4 8 8 5 5 -3 10 16 11 41 1 26 9 58 18 72 9 15 16 28 14 30 -4 6 53 41
67 41 6 0 12 -7 12 -15z m-769 -86 c-5 -13 -10 -19 -10 -12 -1 15 10 45 15 40
3 -2 0 -15 -5 -28z m-11 -739 c-6 -11 -13 -20 -16 -20 -2 0 0 9 6 20 6 11 13
20 16 20 2 0 0 -9 -6 -20z m-769 -407 c-12 -20 -14 -14 -5 12 4 9 9 14 11 11
3 -2 0 -13 -6 -23z m1456 -1889 c-3 -3 -12 -4 -19 -1 -8 3 -5 6 6 6 11 1 17
-2 13 -5z"/>
<path d="M5181 8711 c-9 -6 -8 -11 4 -21 23 -19 133 -4 113 16 -10 9 -103 13
-117 5z"/>
<path d="M4692 6664 c12 -12 35 -19 65 -21 27 -1 48 -3 48 -3 0 -1 8 -3 18 -5
9 -2 15 1 11 6 -3 5 -10 7 -15 4 -5 -4 -9 -2 -9 3 0 5 -23 12 -50 16 -28 4
-58 9 -68 13 -16 6 -16 5 0 -13z"/>
<path d="M5175 6080 c-3 -5 -2 -10 4 -10 5 0 13 5 16 10 3 6 2 10 -4 10 -5 0
-13 -4 -16 -10z"/>
<path d="M2990 4909 c0 -5 5 -7 10 -4 6 3 10 8 10 11 0 2 -4 4 -10 4 -5 0 -10
-5 -10 -11z"/>
<path d="M4608 5183 c7 -3 16 -2 19 1 4 3 -2 6 -13 5 -11 0 -14 -3 -6 -6z"/>
<path d="M3790 4310 c0 -11 4 -20 9 -20 5 0 7 9 4 20 -3 11 -7 20 -9 20 -2 0
-4 -9 -4 -20z"/>
<path d="M4950 4631 c0 -6 4 -13 10 -16 6 -3 7 1 4 9 -7 18 -14 21 -14 7z"/>
<path d="M6240 8679 l-25 -10 25 -14 c33 -19 65 -19 80 0 7 8 16 12 21 9 5 -3
9 -1 9 4 0 22 -66 29 -110 11z"/>
<path d="M6410 8626 c0 -1 14 -12 31 -25 27 -20 29 -21 18 -2 -10 15 -49 37
-49 27z"/>
<path d="M6818 8421 c17 -11 32 -26 32 -33 0 -9 3 -8 10 2 14 22 12 27 -14 34
-13 3 -32 9 -43 12 -10 3 -3 -3 15 -15z"/>
<path d="M6385 8330 c14 -23 92 -68 105 -60 9 6 4 13 -21 26 -55 30 -90 44
-84 34z"/>
<path d="M6530 8255 c14 -8 32 -14 40 -14 8 0 0 6 -19 14 -42 19 -54 19 -21 0z"/>
<path d="M6856 8182 c-9 -15 22 -49 59 -66 39 -19 55 -15 55 15 0 14 -13 25
-46 39 -51 22 -60 24 -68 12z"/>
<path d="M7171 8161 c16 -25 32 -27 49 -6 10 12 10 15 -1 15 -8 0 -25 3 -37 7
-22 5 -23 4 -11 -16z"/>
<path d="M6980 8085 c0 -9 50 -34 54 -27 3 5 -8 13 -25 19 -16 6 -29 10 -29 8z"/>
<path d="M7310 8028 c0 -3 14 -11 31 -17 24 -8 37 -7 57 4 29 16 33 14 -51 18
-20 1 -37 -1 -37 -5z"/>
<path d="M7839 7645 c18 -8 36 -15 40 -15 13 1 -45 29 -59 29 -8 0 0 -6 19
-14z"/>
<path d="M7941 7582 c19 -20 43 -56 53 -79 19 -42 46 -58 46 -28 0 8 -1 16 -2
18 -1 1 4 12 10 23 10 19 7 24 -27 47 -21 14 -56 33 -76 41 l-37 16 33 -38z"/>
<path d="M7984 7345 c17 -13 33 -22 38 -19 17 10 7 21 -29 32 l-38 11 29 -24z"/>
<path d="M7781 7313 c5 -21 9 -41 9 -45 0 -4 6 -5 14 -2 8 3 19 -3 26 -15 10
-19 49 -29 62 -15 5 5 -30 40 -99 97 l-21 18 9 -38z"/>
<path d="M8174 7151 c-8 -20 -8 -32 1 -44 15 -21 25 -12 25 22 0 42 -14 54
-26 22z"/>
<path d="M8140 7025 c7 -8 17 -15 22 -15 6 0 5 7 -2 15 -7 8 -17 15 -22 15 -6
0 -5 -7 2 -15z"/>
<path d="M8193 6955 c19 -41 22 -43 37 -30 9 8 19 14 21 13 2 -2 -12 12 -31
29 -19 18 -38 33 -41 33 -4 0 3 -20 14 -45z"/>
<path d="M8117 6930 c-13 -30 -33 -95 -33 -107 1 -6 13 -21 29 -33 15 -12 27
-28 27 -36 0 -8 -11 -14 -27 -15 -21 -1 -23 -2 -8 -6 11 -3 24 -9 30 -14 16
-15 35 -10 35 9 0 11 -7 33 -16 51 -9 17 -19 62 -23 99 -4 37 -11 60 -14 52z"/>
<path d="M8280 6933 c1 -10 29 -43 53 -62 14 -11 17 -11 17 0 0 8 -16 27 -35
42 -19 15 -35 24 -35 20z"/>
<path d="M8382 6927 c-23 -27 -24 -61 -1 -75 28 -18 30 -13 18 31 -5 21 -7 42
-4 47 9 14 -1 12 -13 -3z"/>
<path d="M8247 6746 c-10 -27 0 -51 19 -47 11 2 34 4 52 5 l33 1 -33 27 c-36
30 -63 35 -71 14z"/>
<path d="M8636 6454 c-7 -25 14 -65 50 -94 15 -13 16 -10 11 38 -7 76 -47 113
-61 56z"/>
<path d="M8441 6455 c7 -11 40 -45 73 -75 45 -40 52 -44 26 -15 -43 48 -49 54
-84 85 -22 19 -26 20 -15 5z"/>
<path d="M8549 6461 c7 -5 14 -18 15 -28 1 -21 66 -83 66 -64 0 6 -4 11 -8 11
-4 0 -21 20 -36 45 -16 25 -34 45 -40 45 -6 0 -5 -4 3 -9z"/>
<path d="M8648 6264 c4 -36 -12 -46 -37 -21 -7 6 -3 -5 9 -25 29 -49 48 -64
62 -50 9 9 7 25 -6 67 -20 64 -34 78 -28 29z"/>
<path d="M8744 6161 c25 -39 46 -51 46 -26 0 9 -4 14 -9 11 -5 -3 -13 7 -19
22 -5 16 -17 29 -25 29 -12 0 -11 -7 7 -36z"/>
<path d="M8597 5784 c-6 -33 -3 -43 20 -64 14 -14 23 -20 19 -14 -3 7 -8 29
-12 50 -9 61 -20 72 -27 28z"/>
<path d="M8682 5790 c-13 -33 -7 -61 33 -150 42 -94 54 -139 45 -165 -6 -16 0
-23 28 -37 20 -10 37 -16 40 -14 2 3 -22 69 -54 148 -32 79 -63 166 -70 193
-11 47 -12 49 -22 25z"/>
<path d="M8814 5233 c9 -17 21 -35 27 -38 22 -14 17 1 -12 35 l-30 35 15 -32z"/>
<path d="M9007 4523 c-11 -10 14 -33 35 -33 14 0 18 5 14 16 -3 9 -6 18 -6 20
0 7 -36 5 -43 -3z"/>
<path d="M8924 4446 l0 -33 37 10 38 9 -28 24 c-38 32 -46 30 -47 -10z"/>
<path d="M9007 4294 c-12 -17 -16 -32 -11 -47 7 -19 9 -17 21 22 7 25 12 46
10 47 -1 1 -10 -9 -20 -22z"/>
</g>
</svg>
